<svg xmlns="http://www.w3.org/2000/svg" width="15" height="15"><defs><filter id="a"><feFlood flood-color="#BBB" flood-opacity="1" result="floodOut"/><feComposite in="floodOut" in2="SourceGraphic" operator="atop" result="compOut"/><feBlend in="compOut" in2="SourceGraphic"/></filter></defs><g filter="url(#a)"><path fill-rule="evenodd" d="M14.531 14.999h-3.152a.469.469 0 01-.47-.466v-3.141c0-.257.211-.466.47-.466h3.15c.26 0 .468.21.471.466v3.141a.467.467 0 01-.469.466zm0-5.464h-3.152a.468.468 0 01-.47-.466V5.93c0-.258.211-.466.47-.466h3.15c.26 0 .468.208.468.466H15v3.139a.466.466 0 01-.469.466zm0-5.462h-3.152a.468.468 0 01-.47-.466V.466c0-.258.211-.466.47-.466h3.15c.26 0 .468.208.468.466H15v3.141a.466.466 0 01-.469.466zM9.074 14.999H5.922a.466.466 0 01-.466-.466v-3.141c0-.257.208-.466.466-.466h3.152c.261 0 .468.21.468.466v3.141a.466.466 0 01-.468.466zm0-5.464H5.922a.465.465 0 01-.466-.466V5.93c0-.258.208-.466.466-.466h3.152c.261 0 .468.208.468.466v3.139a.465.465 0 01-.468.466zm0-5.462H5.922a.465.465 0 01-.466-.466V.466c0-.258.208-.466.466-.466h3.152c.261 0 .468.208.468.466v3.141a.465.465 0 01-.468.466zM3.621 14.999H.468A.467.467 0 010 14.533v-3.141c0-.257.209-.466.468-.466H3.62c.257 0 .468.21.468.466v3.141a.467.467 0 01-.467.466zm0-5.464H.468A.466.466 0 010 9.069V5.93c0-.258.209-.466.468-.466H3.62c.257 0 .468.208.468.466v3.139a.466.466 0 01-.467.466zm0-5.462H.468A.466.466 0 010 3.607V.466C0 .208.209 0 .468 0H3.62c.257 0 .468.208.468.466v3.141a.466.466 0 01-.467.466z"/></g></svg>